HIERARCHY
ROOT Hips
{
	OFFSET 0.000000 83.214638 0.000000
	CHANNELS 6 Xposition Yposition Zposition Xrotation Yrotation Zrotation
	JOINT Pelvis
	{
		OFFSET 0.000000 0.000000 0.000000
		CHANNELS 3 Xrotation Yrotation Zrotation
		JOINT LeftUpLeg
		{
			OFFSET 8.479700 -4.795502 -0.379100
			CHANNELS 3 Xrotation Yrotation Zrotation
			JOINT LeftLeg
			{
				OFFSET 0.024144 -32.555107 0.112900
				CHANNELS 3 Xrotation Yrotation Zrotation
				JOINT LeftFoot
				{
					OFFSET -0.024144 -32.638630 -3.012600
					CHANNELS 3 Xrotation Yrotation Zrotation
					JOINT LeftToeBase
					{
						OFFSET 0.970200 -13.225400 11.864200
						CHANNELS 3 Xrotation Yrotation Zrotation
						End Site
						{
							OFFSET 0.000000 12.319262 0.000000
						}
					}
					JOINT LFootTongue
					{
						OFFSET 1.142400 -1.059800 6.665200
						CHANNELS 3 Xrotation Yrotation Zrotation
						End Site
						{
							OFFSET 0.000000 12.319262 0.000000
						}
					}
				}
				JOINT LeftPantLeg
				{
					OFFSET 0.918482 -16.533964 -2.284700
					CHANNELS 3 Xrotation Yrotation Zrotation
					End Site
					{
						OFFSET 0.350399 24.744368 0.000000
					}
				}
			}
		}
		JOINT RightUpLeg
		{
			OFFSET -8.479700 -4.795502 -0.379100
			CHANNELS 3 Xrotation Yrotation Zrotation
			JOINT RightLeg
			{
				OFFSET -0.023144 -32.555092 0.112900
				CHANNELS 3 Xrotation Yrotation Zrotation
				JOINT RightFoot
				{
					OFFSET 0.023144 -32.638641 -3.012700
					CHANNELS 3 Xrotation Yrotation Zrotation
					JOINT RightToeBase
					{
						OFFSET -0.970200 -13.225400 11.864200
						CHANNELS 3 Xrotation Yrotation Zrotation
						End Site
						{
							OFFSET 0.000000 12.319244 0.000000
						}
					}
					JOINT RFootTongue
					{
						OFFSET -1.142200 -1.059800 6.665200
						CHANNELS 3 Xrotation Yrotation Zrotation
						End Site
						{
							OFFSET 0.000000 12.319243 0.000000
						}
					}
				}
				JOINT RightPantLeg
				{
					OFFSET -0.919482 -16.533978 -2.284800
					CHANNELS 3 Xrotation Yrotation Zrotation
					End Site
					{
						OFFSET -0.350400 24.744419 0.000000
					}
				}
			}
		}
	}
	JOINT Spine
	{
		OFFSET 0.000000 7.722000 1.166200
		CHANNELS 3 Xrotation Yrotation Zrotation
		JOINT Spine1
		{
			OFFSET 0.000000 12.024101 0.248800
			CHANNELS 3 Xrotation Yrotation Zrotation
			JOINT Spine2
			{
				OFFSET 0.000000 11.502998 -0.491200
				CHANNELS 3 Xrotation Yrotation Zrotation
				JOINT Neck
				{
					OFFSET 0.000000 18.430702 -3.123100
					CHANNELS 3 Xrotation Yrotation Zrotation
					JOINT Head
					{
						OFFSET 0.000000 9.051102 1.034000
						CHANNELS 3 Xrotation Yrotation Zrotation
						JOINT HairB
						{
							OFFSET 0.208400 24.786102 24.822300
							CHANNELS 3 Xrotation Yrotation Zrotation
							End Site
							{
								OFFSET 0.000000 32.263779 0.000000
							}
						}
						JOINT HairA
						{
							OFFSET -7.081100 24.428299 23.196600
							CHANNELS 3 Xrotation Yrotation Zrotation
							End Site
							{
								OFFSET 0.000000 32.263779 0.000000
							}
						}
						JOINT Hat
						{
							OFFSET 16.728800 15.048294 -15.439601
							CHANNELS 3 Xrotation Yrotation Zrotation
							End Site
							{
								OFFSET 0.000000 32.263779 0.000000
							}
						}
					}
				}
				JOINT LeftShoulder
				{
					OFFSET 6.197800 13.665199 -4.064700
					CHANNELS 3 Xrotation Yrotation Zrotation
					JOINT LeftArm
					{
						OFFSET 7.778100 -0.187103 -1.709300
						CHANNELS 3 Xrotation Yrotation Zrotation
						JOINT LeftForeArm
						{
							OFFSET 22.049376 0.000000 0.000000
							CHANNELS 3 Xrotation Yrotation Zrotation
							JOINT LeftHand
							{
								OFFSET 23.009392 0.000000 0.000000
								CHANNELS 3 Xrotation Yrotation Zrotation
								JOINT LeftHandThumb1
								{
									OFFSET 3.507191 -2.063065 3.133727
									CHANNELS 3 Xrotation Yrotation Zrotation
									JOINT LeftHandThumb2
									{
										OFFSET 3.101337 -1.790558 1.790558
										CHANNELS 3 Xrotation Yrotation Zrotation
										JOINT LeftHandThumb3
										{
											OFFSET 3.058640 -1.765907 1.765906
											CHANNELS 3 Xrotation Yrotation Zrotation
											End Site
											{
												OFFSET -0.415260 3.926476 -0.049563
											}
										}
									}
								}
								JOINT LeftHandIndex1
								{
									OFFSET 11.334419 -0.901459 3.706815
									CHANNELS 3 Xrotation Yrotation Zrotation
									JOINT LeftHandIndex2
									{
										OFFSET 3.283112 0.000000 0.000000
										CHANNELS 3 Xrotation Yrotation Zrotation
										JOINT LeftHandIndex3
										{
											OFFSET 3.323853 0.000000 0.000000
											CHANNELS 3 Xrotation Yrotation Zrotation
											End Site
											{
												OFFSET -1.135597 3.097809 0.402452
											}
										}
									}
								}
								JOINT LeftHandMiddle1
								{
									OFFSET 11.335861 0.000000 0.000000
									CHANNELS 3 Xrotation Yrotation Zrotation
									JOINT LeftHandMiddle2
									{
										OFFSET 3.410492 0.000000 0.000000
										CHANNELS 3 Xrotation Yrotation Zrotation
										JOINT LeftHandMiddle3
										{
											OFFSET 3.312172 0.000000 0.000000
											CHANNELS 3 Xrotation Yrotation Zrotation
											End Site
											{
												OFFSET -1.150200 3.080154 0.400270
											}
										}
									}
								}
								JOINT LeftHandRing1
								{
									OFFSET 11.514786 -0.013176 -3.003090
									CHANNELS 3 Xrotation Yrotation Zrotation
									JOINT LeftHandRing2
									{
										OFFSET 3.053307 0.000000 0.000000
										CHANNELS 3 Xrotation Yrotation Zrotation
										JOINT LeftHandRing3
										{
											OFFSET 3.295807 0.000000 0.000000
											CHANNELS 3 Xrotation Yrotation Zrotation
											End Site
											{
												OFFSET -1.281006 3.013344 0.375733
											}
										}
									}
								}
								JOINT LeftHandPinky1
								{
									OFFSET 10.518692 -0.960396 -5.730441
									CHANNELS 3 Xrotation Yrotation Zrotation
									JOINT LeftHandPinky2
									{
										OFFSET 2.861649 0.000000 0.000000
										CHANNELS 3 Xrotation Yrotation Zrotation
										JOINT LeftHandPinky3
										{
											OFFSET 2.863380 0.000000 0.000000
											CHANNELS 3 Xrotation Yrotation Zrotation
											End Site
											{
												OFFSET -0.843597 2.711159 0.369971
											}
										}
									}
								}
							}
							JOINT LSleeve
							{
								OFFSET 6.676277 -0.344902 -1.011730
								CHANNELS 3 Xrotation Yrotation Zrotation
								End Site
								{
									OFFSET 0.000000 14.885353 0.000000
								}
							}
						}
					}
				}
				JOINT RightShoulder
				{
					OFFSET -6.197800 13.665199 -4.064700
					CHANNELS 3 Xrotation Yrotation Zrotation
					JOINT RightArm
					{
						OFFSET -7.778100 -0.187103 -1.709300
						CHANNELS 3 Xrotation Yrotation Zrotation
						JOINT RightForeArm
						{
							OFFSET -22.049376 0.000000 0.000000
							CHANNELS 3 Xrotation Yrotation Zrotation
							JOINT RightHand
							{
								OFFSET -23.009392 0.000000 0.000000
								CHANNELS 3 Xrotation Yrotation Zrotation
								JOINT RightHandThumb1
								{
									OFFSET -3.507191 -2.063065 3.133727
									CHANNELS 3 Xrotation Yrotation Zrotation
									JOINT RightHandThumb2
									{
										OFFSET -3.101337 -1.790558 1.790558
										CHANNELS 3 Xrotation Yrotation Zrotation
										JOINT RightHandThumb3
										{
											OFFSET -3.058640 -1.765907 1.765906
											CHANNELS 3 Xrotation Yrotation Zrotation
											End Site
											{
												OFFSET 0.415260 3.926476 -0.049563
											}
										}
									}
								}
								JOINT RightHandIndex1
								{
									OFFSET -11.334419 -0.901459 3.706815
									CHANNELS 3 Xrotation Yrotation Zrotation
									JOINT RightHandIndex2
									{
										OFFSET -3.283112 0.000000 0.000000
										CHANNELS 3 Xrotation Yrotation Zrotation
										JOINT RightHandIndex3
										{
											OFFSET -3.323853 0.000000 0.000000
											CHANNELS 3 Xrotation Yrotation Zrotation
											End Site
											{
												OFFSET 1.135597 3.097809 0.402452
											}
										}
									}
								}
								JOINT RightHandMiddle1
								{
									OFFSET -11.335861 0.000000 0.000000
									CHANNELS 3 Xrotation Yrotation Zrotation
									JOINT RightHandMiddle2
									{
										OFFSET -3.410492 0.000000 0.000000
										CHANNELS 3 Xrotation Yrotation Zrotation
										JOINT RightHandMiddle3
										{
											OFFSET -3.312172 0.000000 0.000000
											CHANNELS 3 Xrotation Yrotation Zrotation
											End Site
											{
												OFFSET 1.150200 3.080154 0.400270
											}
										}
									}
								}
								JOINT RightHandRing1
								{
									OFFSET -11.514786 -0.013176 -3.003090
									CHANNELS 3 Xrotation Yrotation Zrotation
									JOINT RightHandRing2
									{
										OFFSET -3.053307 0.000000 0.000000
										CHANNELS 3 Xrotation Yrotation Zrotation
										JOINT RightHandRing3
										{
											OFFSET -3.295807 0.000000 0.000000
											CHANNELS 3 Xrotation Yrotation Zrotation
											End Site
											{
												OFFSET 1.281006 3.013344 0.375733
											}
										}
									}
								}
								JOINT RightHandPinky1
								{
									OFFSET -10.518692 -0.960396 -5.730441
									CHANNELS 3 Xrotation Yrotation Zrotation
									JOINT RightHandPinky2
									{
										OFFSET -2.861649 0.000000 0.000000
										CHANNELS 3 Xrotation Yrotation Zrotation
										JOINT RightHandPinky3
										{
											OFFSET -2.863380 0.000000 0.000000
											CHANNELS 3 Xrotation Yrotation Zrotation
											End Site
											{
												OFFSET 0.843597 2.711159 0.369971
											}
										}
									}
								}
							}
							JOINT RSleeve
							{
								OFFSET -6.676277 -0.344902 -1.011730
								CHANNELS 3 Xrotation Yrotation Zrotation
								End Site
								{
									OFFSET 0.000000 14.885353 0.000000
								}
							}
						}
					}
				}
				JOINT Backpack
				{
					OFFSET 0.000000 -2.471497 36.677502
					CHANNELS 3 Xrotation Yrotation Zrotation
					End Site
					{
						OFFSET 0.000000 20.427315 0.000000
					}
				}
				JOINT Hood
				{
					OFFSET 0.000000 18.754097 -10.431000
					CHANNELS 3 Xrotation Yrotation Zrotation
					JOINT Hood1
					{
						OFFSET 0.000000 -5.011002 -7.685901
						CHANNELS 3 Xrotation Yrotation Zrotation
						End Site
						{
							OFFSET 0.000000 9.175140 0.000000
						}
					}
				}
				JOINT LHoodieString
				{
					OFFSET 5.250500 16.397697 3.089900
					CHANNELS 3 Xrotation Yrotation Zrotation
					JOINT LHoodieString1
					{
						OFFSET 0.257700 -6.364304 3.694600
						CHANNELS 3 Xrotation Yrotation Zrotation
						JOINT LHoodieString2
						{
							OFFSET 0.000000 -9.643799 2.679100
							CHANNELS 3 Xrotation Yrotation Zrotation
							End Site
							{
								OFFSET 0.000000 10.009018 0.000000
							}
						}
					}
				}
				JOINT RHoodieString
				{
					OFFSET -5.250500 16.397697 3.089900
					CHANNELS 3 Xrotation Yrotation Zrotation
					JOINT RHoodieString1
					{
						OFFSET -0.257700 -6.364304 3.694600
						CHANNELS 3 Xrotation Yrotation Zrotation
						JOINT RHoodieString2
						{
							OFFSET 0.000000 -9.643799 2.679100
							CHANNELS 3 Xrotation Yrotation Zrotation
							End Site
							{
								OFFSET 0.000000 10.009018 0.000000
							}
						}
					}
				}
			}
			JOINT LBackpack_Strap
			{
				OFFSET 15.223200 -7.719803 -6.610900
				CHANNELS 3 Xrotation Yrotation Zrotation
				End Site
				{
					OFFSET 0.000000 16.040596 0.000000
				}
			}
			JOINT RBackpack_Strap
			{
				OFFSET -15.223000 -7.719803 -6.610900
				CHANNELS 3 Xrotation Yrotation Zrotation
				End Site
				{
					OFFSET 0.000000 16.040596 0.000000
				}
			}
		}
	}
	JOINT BoyFacialAnim_Joint
	{
		OFFSET 1.000000 -82.208099 -1.550900
		CHANNELS 3 Xrotation Yrotation Zrotation
		End Site
		{
			OFFSET 0.000000 30.012791 0.000000
		}
	}
}
MOTION
Frames: 4
Frame Time: 0.033333
0.829256 75.342094 -0.730451 -0.736622 25.613734 -13.656980 -0.000000 0.000001 0.000000 -38.334372 7.819134 25.407288 57.143873 8.831447 5.478695 -21.323659 2.259112 -9.534435 0.000000 0.000001 0.000000 0.000000 0.000001 -0.000000 -0.000000 -0.000000 0.000001 -20.564149 -6.727299 -6.582390 19.577906 9.961217 -0.962672 0.983383 -0.778317 18.394958 0.000000 -0.000001 0.000000 0.000000 -0.000001 0.000000 0.000000 0.000001 0.000000 3.575150 0.154023 -0.903573 7.154055 0.096263 -2.974440 7.154059 0.096267 -2.974445 -3.754667 33.275606 1.901234 -8.370963 39.143708 -13.339550 0.000001 0.000000 -0.000001 0.000001 0.000000 -0.000001 0.000001 0.000000 -0.000001 4.249508 -11.868553 -4.612359 3.206730 -13.658987 -39.486037 44.442275 -32.012663 -9.072352 8.563412 2.356049 -1.712033 -0.310795 1.878006 -0.804740 2.334067 6.709350 2.157454 -0.000001 -0.000000 -0.000000 21.631347 -9.708987 -1.880313 -0.376644 -0.343988 -26.616918 -0.000002 0.000003 -0.000001 -0.087760 1.012230 -8.136101 -0.376211 -1.396083 -20.266319 0.000001 0.000000 0.000000 -0.021950 7.581691 -14.464988 -0.303378 -2.191545 -22.914984 -0.000001 -0.000002 0.000003 -0.076946 13.537805 -9.271705 -0.605378 -5.637236 -32.402984 0.000002 0.000002 -0.000003 -0.000001 0.000000 0.000000 3.608279 -3.926219 14.333145 22.740787 -20.338840 60.063181 33.627729 50.001824 -2.084588 18.221497 -18.898498 13.352331 -6.896641 1.280061 -10.377012 -0.642346 -0.093886 -1.289323 -0.000001 0.000000 -0.000002 -1.234563 0.594313 8.695272 0.120551 -1.119657 16.859818 -0.000001 -0.000000 0.000002 -1.172833 -1.293340 6.668265 -0.420938 1.290682 23.919273 0.000003 0.000001 0.000002 1.927518 -0.212848 -0.639824 -2.322065 4.930526 57.675326 -0.000001 -0.000000 0.000004 2.031574 -3.860116 6.562467 -2.049214 8.414054 51.198388 0.000003 0.000001 -0.000001 -0.000005 -0.000001 -0.000002 0.000000 -0.000000 -0.000002 0.000000 -0.000000 -0.000002 0.000000 -0.000000 -0.000002 0.000000 -0.000000 -0.000002 0.000000 -0.000000 -0.000000 0.000000 -0.000002 0.000001 0.000000 -0.000000 -0.000002 0.000000 -0.000000 -0.000000 0.000000 -0.000002 0.000001 0.000001 -0.000001 -0.000002 0.000001 -0.000001 -0.000002 -0.000000 0.000001 0.000000 
1.721413 74.500694 -0.888797 0.684228 27.800950 -13.354183 0.000000 0.000002 -0.000000 -41.665920 8.733488 24.555630 60.105876 16.476665 3.679613 -22.150391 2.281565 -8.994621 0.000000 -0.000002 -0.000000 0.000000 -0.000002 0.000000 0.000000 -0.000000 0.000001 -23.793268 -6.213210 -9.121499 25.049840 7.997596 -1.397171 -1.276914 -1.117483 19.442021 0.000000 -0.000000 0.000000 0.000000 -0.000000 0.000000 -0.000000 0.000000 -0.000002 3.670457 -0.135077 -0.805420 7.331931 -0.500831 -2.666479 7.331933 -0.500836 -2.666477 -4.504138 33.050449 2.545889 -9.369813 38.571707 -13.372529 0.000001 0.000000 -0.000000 0.000001 0.000000 -0.000000 0.000001 0.000000 -0.000000 4.236132 -12.078921 -4.277435 3.287674 -15.085224 -39.589122 44.345577 -34.189314 -8.663974 6.635714 2.000221 -1.102708 4.805964 0.122386 -3.502002 2.206488 6.195769 4.224023 -0.000000 -0.000000 0.000000 19.818216 -11.989019 -7.785618 -0.500864 -0.445803 -27.736789 0.000002 0.000001 -0.000000 -0.454680 0.622956 -12.177349 -0.496934 -1.510107 -21.522922 0.000000 0.000000 0.000000 -0.024414 6.135103 -16.653347 -0.257169 -2.359346 -25.419048 -0.000001 -0.000003 -0.000001 0.022488 12.341279 -10.592746 -0.549296 -5.691235 -33.703480 -0.000004 0.000001 -0.000000 -0.000002 0.000000 -0.000000 3.640920 -3.752849 14.659080 21.543247 -19.370567 59.344399 32.924339 51.346429 -2.969860 16.309534 -19.524033 11.926670 -6.917653 1.808504 -10.819373 -1.363363 -0.490667 -1.038312 -0.000002 -0.000004 -0.000002 -1.647083 0.164751 17.639780 -0.523957 -0.564839 24.285525 -0.000002 -0.000003 0.000008 -1.128309 -2.116250 15.049014 -1.454438 1.933658 34.267281 -0.000001 0.000001 0.000002 0.306534 1.744083 11.038747 -2.515373 5.207577 62.870607 -0.000004 -0.000002 0.000005 0.950053 0.149823 18.512649 -2.073517 8.847795 57.189065 0.000000 -0.000001 0.000004 -0.000003 -0.000000 0.000001 0.000001 0.000000 -0.000000 0.000001 0.000000 -0.000000 0.000001 0.000000 -0.000000 0.000001 0.000000 -0.000000 0.000001 0.000000 0.000001 -0.000000 0.000001 0.000001 0.000001 0.000000 -0.000000 0.000001 0.000000 0.000001 -0.000000 0.000001 0.000001 -0.000000 0.000001 -0.000001 -0.000000 0.000001 -0.000001 0.000000 0.000002 -0.000000 
2.953509 73.534943 -0.502655 2.298341 30.385206 -13.065027 -0.000000 -0.000001 -0.000000 -45.085566 9.630025 23.263484 63.982842 27.815756 1.919665 -22.509139 2.471055 -8.699239 -0.000000 0.000001 -0.000001 -0.000000 0.000001 -0.000000 -0.000002 -0.000000 -0.000001 -26.463518 -5.860626 -11.813267 31.019775 5.963118 -2.149826 -5.000685 -1.670012 20.194393 0.000000 0.000000 -0.000000 0.000000 0.000000 -0.000000 0.000001 -0.000000 0.000002 3.704979 -0.232203 -0.657533 7.398308 -0.709565 -2.278087 7.398309 -0.709574 -2.278080 -4.879374 32.454084 2.997279 -10.528718 37.484327 -13.202977 0.000000 0.000001 0.000000 0.000000 0.000001 0.000000 0.000000 0.000001 0.000000 4.201081 -12.198820 -4.071602 3.660711 -16.950557 -39.779858 44.632540 -38.632995 -7.317669 3.924285 2.387854 -0.704809 14.331957 -3.524531 -8.025519 2.120603 5.633639 8.647283 0.000000 0.000002 0.000001 15.497537 -16.494265 -19.218890 -0.877599 -0.732125 -31.041758 -0.000001 0.000000 -0.000000 -1.534587 -0.453356 -21.550500 -0.776409 -1.756708 -24.344995 0.000004 -0.000000 -0.000003 -0.450462 3.397334 -21.288540 -0.172262 -2.882927 -33.044004 -0.000004 0.000003 0.000002 0.125060 10.312407 -13.550817 -0.447093 -5.798324 -36.241766 -0.000002 -0.000000 0.000001 -0.000001 0.000000 0.000001 3.618151 -3.520835 14.521790 20.768816 -18.368730 58.508807 33.085402 54.134829 -4.979154 13.955370 -18.988624 10.456553 -6.618515 2.762124 -10.454456 -2.108093 -0.883567 -0.916179 0.000000 0.000001 0.000001 -2.353800 0.744207 24.222381 -1.259244 -0.081371 31.976333 -0.000004 0.000005 -0.000001 -1.157056 -2.304257 21.345161 -2.598910 2.382920 44.720496 -0.000001 0.000005 -0.000001 -0.961367 2.532107 19.458782 -2.778875 5.529650 69.265051 0.000002 0.000003 0.000003 -1.070226 3.124045 29.587635 -2.162738 9.380682 64.601165 0.000001 -0.000001 0.000000 -0.000001 -0.000000 0.000001 -0.000000 0.000001 -0.000000 -0.000000 0.000001 -0.000000 -0.000000 0.000001 -0.000000 -0.000000 0.000001 -0.000000 -0.000000 0.000001 -0.000000 -0.000000 0.000003 -0.000000 -0.000000 0.000001 -0.000000 -0.000000 0.000001 -0.000000 -0.000000 0.000003 -0.000000 0.000001 -0.000001 0.000001 0.000001 -0.000001 0.000001 -0.000000 -0.000001 -0.000000 
4.671650 72.450127 0.650646 3.720988 33.754692 -12.956852 -0.000000 0.000003 0.000000 -47.859115 10.731136 21.074943 68.628716 38.133701 0.938914 -23.485708 2.379926 -7.532851 0.000000 0.000000 0.000000 0.000000 0.000000 0.000001 -0.000001 -0.000001 -0.000001 -27.040377 -6.261002 -14.397994 36.104558 3.931611 -3.233085 -9.919005 -2.412632 21.528147 -0.000000 0.000002 -0.000000 -0.000000 0.000002 -0.000000 -0.000002 0.000001 0.000001 3.623556 -0.166061 -0.473864 7.239066 -0.575587 -1.864610 7.239072 -0.575592 -1.864606 -4.786264 31.585930 3.067802 -11.459272 36.033018 -12.872603 0.000001 -0.000000 -0.000001 0.000001 -0.000000 -0.000001 0.000001 -0.000000 -0.000001 4.167268 -11.944405 -4.022254 4.012282 -18.193792 -40.667851 45.058481 -45.177996 -3.982382 1.141113 4.229672 0.251756 21.774230 -6.377934 -11.213211 2.690280 5.759991 12.436097 0.000002 0.000000 -0.000000 10.918000 -20.429079 -27.598411 -1.512772 -1.144571 -36.347654 -0.000002 -0.000000 -0.000002 -2.821423 -1.285944 -30.838543 -1.181809 -2.074488 -28.247975 0.000000 0.000002 -0.000001 -0.826068 2.875317 -26.027421 -0.146218 -3.449614 -40.924543 -0.000001 -0.000001 -0.000001 0.190532 9.715654 -15.494284 -0.310259 -5.956161 -39.832820 0.000002 0.000002 0.000002 -0.000000 0.000001 0.000001 3.540382 -3.230851 13.866466 20.517502 -17.331176 58.508773 33.515680 56.758722 -7.333478 11.932337 -17.105480 8.686803 -6.802901 3.318566 -10.245885 -2.371612 -1.043756 -0.764312 -0.000001 -0.000002 0.000001 -2.973687 1.485042 27.984246 -2.124167 0.329745 40.350931 -0.000003 -0.000002 0.000002 -1.222336 -2.306552 24.933286 -3.444425 2.569623 52.068755 0.000005 0.000004 -0.000001 -1.997230 2.995988 25.588708 -3.078130 5.835618 75.809861 -0.000000 -0.000002 0.000002 -2.519267 4.053183 37.580380 -2.350137 9.980592 73.181591 0.000000 -0.000001 0.000000 -0.000001 0.000001 0.000000 0.000002 0.000000 -0.000001 0.000002 0.000000 -0.000001 0.000002 0.000000 -0.000001 0.000002 0.000000 -0.000001 0.000002 0.000000 -0.000000 0.000001 -0.000001 -0.000001 0.000002 0.000000 -0.000001 0.000002 0.000000 -0.000000 0.000001 -0.000001 -0.000001 0.000002 0.000000 -0.000002 0.000002 0.000000 -0.000002 -0.000000 0.000003 0.000000 
